<svg width="21" height="21" viewBox="0 0 21 21" fill="none" xmlns="http://www.w3.org/2000/svg">
<path d="M3.16406 6.76172C3.28125 6.62109 3.35156 6.36328 3.375 5.98828C3.42188 5.58984 3.51562 5.14453 3.65625 4.65234C3.82031 4.16016 4.08984 3.64453 4.46484 3.10547C4.83984 2.56641 5.44922 2.0625 6.29297 1.59375C7.11328 1.125 7.91016 0.84375 8.68359 0.75C9.45703 0.65625 10.1953 0.691406 10.8984 0.855469C11.6016 1.01953 12.2578 1.27734 12.8672 1.62891C13.5 1.98047 14.0742 2.36719 14.5898 2.78906C14.9414 3.07031 15.2227 3.48047 15.4336 4.01953C15.6445 4.53516 15.8086 5.12109 15.9258 5.77734C16.043 6.43359 16.125 7.125 16.1719 7.85156C16.2422 8.55469 16.2891 9.24609 16.3125 9.92578C16.3359 10.582 16.3477 11.1914 16.3477 11.7539C16.3711 12.293 16.418 12.7383 16.4883 13.0898C16.582 13.6055 16.7461 14.0508 16.9805 14.4258C17.2148 14.7773 17.4727 15.082 17.7539 15.3398C18.0352 15.5742 18.3164 15.7617 18.5977 15.9023C18.8789 16.043 19.125 16.1484 19.3359 16.2188C19.4766 16.2891 19.6055 16.3359 19.7227 16.3594C19.957 16.4531 20.1211 16.4531 20.2148 16.3594C20.0742 16.6875 19.9453 16.9688 19.8281 17.2031C19.7109 17.4375 19.6172 17.6367 19.5469 17.8008C19.4531 17.9883 19.3711 18.1406 19.3008 18.2578C19.2305 18.3984 19.1484 18.5273 19.0547 18.6445C18.9844 18.7617 18.8906 18.8906 18.7734 19.0312C18.6562 19.1719 18.5391 19.3242 18.4219 19.4883C18.1172 19.3711 17.8242 19.2305 17.543 19.0664C17.2852 18.9023 17.0508 18.75 16.8398 18.6094C16.582 18.4453 16.3477 18.2812 16.1367 18.1172C15.9258 17.9531 15.7266 17.7656 15.5391 17.5547C15.375 17.3672 15.1992 17.168 15.0117 16.957C14.8477 16.7461 14.707 16.5117 14.5898 16.2539C14.4492 16.5586 14.1094 16.9922 13.5703 17.5547C13.0547 18.1172 12.375 18.6328 11.5312 19.1016C10.6875 19.5469 9.70312 19.8633 8.57812 20.0508C7.47656 20.2383 6.25781 20.1094 4.92188 19.6641C4.33594 19.4766 3.78516 19.207 3.26953 18.8555C2.75391 18.4805 2.30859 18.0352 1.93359 17.5195C1.58203 17.0039 1.32422 16.418 1.16016 15.7617C1.01953 15.082 1.03125 14.332 1.19531 13.5117C1.35938 12.6914 1.65234 12 2.07422 11.4375C2.49609 10.875 3 10.418 3.58594 10.0664C4.17188 9.71484 4.82812 9.44531 5.55469 9.25781C6.28125 9.07031 7.03125 8.94141 7.80469 8.87109C8.41406 8.84766 9.02344 8.88281 9.63281 8.97656C10.1484 9.07031 10.6875 9.24609 11.25 9.50391C11.8125 9.73828 12.293 10.1016 12.6914 10.5938C12.668 9.35156 12.6211 8.36719 12.5508 7.64062C12.5039 6.89062 12.457 6.31641 12.4102 5.91797C12.3164 5.44922 12.2344 5.12109 12.1641 4.93359C12.0469 4.76953 11.918 4.58203 11.7773 4.37109C11.6602 4.16016 11.5078 3.97266 11.3203 3.80859C11.1328 3.62109 10.8984 3.46875 10.6172 3.35156C10.3359 3.23438 10.0078 3.1875 9.63281 3.21094C9.23438 3.23438 8.91797 3.33984 8.68359 3.52734C8.44922 3.71484 8.26172 3.9375 8.12109 4.19531C8.00391 4.42969 7.93359 4.6875 7.91016 4.96875C7.88672 5.25 7.89844 5.49609 7.94531 5.70703C7.99219 5.84766 8.0625 6 8.15625 6.16406C8.25 6.30469 8.37891 6.45703 8.54297 6.62109C8.70703 6.78516 8.92969 6.92578 9.21094 7.04297C8.67188 7.11328 8.19141 7.17188 7.76953 7.21875C7.34766 7.24219 6.98438 7.27734 6.67969 7.32422C6.32812 7.37109 6.02344 7.40625 5.76562 7.42969C5.50781 7.45312 5.20312 7.5 4.85156 7.57031C4.54688 7.61719 4.17188 7.67578 3.72656 7.74609C3.28125 7.81641 2.76562 7.91016 2.17969 8.02734C2.32031 7.86328 2.44922 7.71094 2.56641 7.57031C2.68359 7.40625 2.78906 7.26562 2.88281 7.14844C2.97656 7.00781 3.07031 6.87891 3.16406 6.76172ZM8.4375 10.9453C8.01562 10.9688 7.59375 11.0742 7.17188 11.2617C6.75 11.4258 6.375 11.6719 6.04688 12C5.71875 12.3047 5.4375 12.668 5.20312 13.0898C4.99219 13.4883 4.88672 13.9336 4.88672 14.4258C4.88672 14.918 5.00391 15.3516 5.23828 15.7266C5.49609 16.0781 5.82422 16.3711 6.22266 16.6055C6.64453 16.8398 7.08984 16.9805 7.55859 17.0273C8.05078 17.0742 8.53125 17.0273 9 16.8867C9.44531 16.7227 9.86719 16.4648 10.2656 16.1133C10.6641 15.7383 11.0039 15.3398 11.2852 14.918C11.5664 14.4727 11.7656 14.0391 11.8828 13.6172C12 13.1719 12.0117 12.8086 11.918 12.5273C11.7305 11.918 11.3086 11.4961 10.6523 11.2617C9.99609 11.0039 9.25781 10.8984 8.4375 10.9453Z" fill="#4564CD"/>
</svg>
