<svg width="114" height="31" viewBox="0 0 114 31" fill="none" xmlns="http://www.w3.org/2000/svg">
<g filter="url(#filter0_d_28194_9)">
<path d="M4 14.5407C4 12.8959 4.21646 11.437 4.64938 10.1642C5.09541 8.89141 5.69232 7.91233 6.44009 7.22697C7.20097 6.54161 8.04713 6.19893 8.97857 6.19893C9.79193 6.19893 10.5003 6.44371 11.1038 6.93324C11.7204 7.42278 12.2124 8.03961 12.5797 8.78371V6.46329H15.3543V22.7356H12.5797V20.3565C12.2255 21.1202 11.7335 21.7565 11.1038 22.2657C10.4872 22.7552 9.77225 23 8.95889 23C8.04058 23 7.20097 22.6475 6.44009 21.9426C5.69232 21.2377 5.09541 20.2488 4.64938 18.976C4.21646 17.6836 4 16.2051 4 14.5407ZM12.5797 14.5995C12.5797 13.6008 12.4485 12.749 12.1861 12.0441C11.9237 11.3195 11.5695 10.7712 11.1235 10.3992C10.6774 10.0076 10.1986 9.81175 9.68698 9.81175C9.17535 9.81175 8.70307 9.99778 8.27015 10.3698C7.83723 10.7419 7.48303 11.2902 7.20753 12.0147C6.94516 12.7196 6.81397 13.5616 6.81397 14.5407C6.81397 15.5198 6.94516 16.3814 7.20753 17.1255C7.48303 17.85 7.83723 18.4081 8.27015 18.7997C8.71619 19.1914 9.18846 19.3872 9.68698 19.3872C10.1986 19.3872 10.6774 19.2011 11.1235 18.8291C11.5695 18.4374 11.9237 17.8892 12.1861 17.1842C12.4485 16.4598 12.5797 15.5981 12.5797 14.5995ZM23.791 6.22831C24.6175 6.22831 25.3521 6.50245 25.9949 7.05073C26.6377 7.57944 27.1363 8.3725 27.4905 9.42991C27.8578 10.4677 28.0414 11.721 28.0414 13.1896V22.7356H25.2865V13.7477C25.2865 12.4553 25.07 11.4664 24.6371 10.781C24.2042 10.0761 23.6139 9.72363 22.8661 9.72363C22.1052 9.72363 21.5017 10.0761 21.0557 10.781C20.6228 11.4664 20.4063 12.4553 20.4063 13.7477V22.7356H17.6514V1H20.4063V8.48999C20.7605 7.78505 21.2328 7.23676 21.8232 6.84513C22.4135 6.43391 23.0695 6.22831 23.791 6.22831ZM34.4394 23C33.5474 23 32.7471 22.765 32.0387 22.2951C31.3303 21.8056 30.7662 21.1495 30.3464 20.3271C29.9397 19.5047 29.7167 18.5941 29.6773 17.5955H32.4519C32.5044 18.2221 32.7077 18.741 33.0619 19.1522C33.4293 19.5634 33.8819 19.769 34.4197 19.769C34.9445 19.769 35.3512 19.6123 35.6398 19.2991C35.9415 18.9858 36.0924 18.5843 36.0924 18.0948C36.0924 17.5661 35.9088 17.1744 35.5414 16.9199C35.1872 16.6457 34.6165 16.352 33.8294 16.0387C33.0161 15.745 32.347 15.4414 31.8222 15.1282C31.3106 14.8149 30.8646 14.3351 30.4841 13.6889C30.1168 13.0427 29.9331 12.1714 29.9331 11.0748C29.9331 10.174 30.1037 9.35158 30.4447 8.60748C30.799 7.86337 31.2975 7.27592 31.9403 6.84513C32.5962 6.41433 33.3637 6.19893 34.2426 6.19893C35.5414 6.19893 36.5778 6.68847 37.3518 7.66756C38.1258 8.62706 38.5521 9.92924 38.6308 11.5741H35.994C35.9546 10.9279 35.771 10.4188 35.443 10.0467C35.1281 9.65509 34.7018 9.45928 34.1639 9.45928C33.6655 9.45928 33.2784 9.59635 33.0029 9.8705C32.7406 10.1446 32.6093 10.5265 32.6093 11.016C32.6093 11.5643 32.793 11.9853 33.1603 12.279C33.5277 12.5532 34.0984 12.8371 34.8723 13.1308C35.6594 13.4246 36.3088 13.7281 36.8205 14.0414C37.3321 14.3547 37.7716 14.8443 38.1389 15.51C38.5194 16.1562 38.7161 17.0178 38.7292 18.0948C38.7292 19.0347 38.5521 19.8767 38.1979 20.6208C37.8569 21.365 37.3584 21.9524 36.7024 22.3832C36.0596 22.7944 35.3052 23 34.4394 23ZM39.8887 14.5407C39.8887 12.8959 40.1052 11.437 40.5381 10.1642C40.9841 8.89141 41.5811 7.91233 42.3288 7.22697C43.0897 6.54161 43.9358 6.19893 44.8673 6.19893C45.6807 6.19893 46.3891 6.44371 46.9925 6.93324C47.6091 7.42278 48.1011 8.03961 48.4684 8.78371V6.46329H51.243V22.7356H48.4684V20.3565C48.1142 21.1202 47.6222 21.7565 46.9925 22.2657C46.3759 22.7552 45.661 23 44.8476 23C43.9293 23 43.0897 22.6475 42.3288 21.9426C41.5811 21.2377 40.9841 20.2488 40.5381 18.976C40.1052 17.6836 39.8887 16.2051 39.8887 14.5407ZM48.4684 14.5995C48.4684 13.6008 48.3372 12.749 48.0748 12.0441C47.8124 11.3195 47.4582 10.7712 47.0122 10.3992C46.5662 10.0076 46.0873 9.81175 45.5757 9.81175C45.0641 9.81175 44.5918 9.99778 44.1589 10.3698C43.726 10.7419 43.3718 11.2902 43.0963 12.0147C42.8339 12.7196 42.7027 13.5616 42.7027 14.5407C42.7027 15.5198 42.8339 16.3814 43.0963 17.1255C43.3718 17.85 43.726 18.4081 44.1589 18.7997C44.6049 19.1914 45.0772 19.3872 45.5757 19.3872C46.0873 19.3872 46.5662 19.2011 47.0122 18.8291C47.4582 18.4374 47.8124 17.8892 48.0748 17.1842C48.3372 16.4598 48.4684 15.5981 48.4684 14.5995ZM59.5813 6.22831C60.8801 6.22831 61.9296 6.84513 62.7298 8.07877C63.53 9.29284 63.9302 10.9964 63.9302 13.1896V22.7356H61.1752V13.7477C61.1752 12.4553 60.9588 11.4664 60.5259 10.781C60.0929 10.0761 59.5026 9.72363 58.7548 9.72363C57.994 9.72363 57.3905 10.0761 56.9444 10.781C56.5115 11.4664 56.2951 12.4553 56.2951 13.7477V22.7356H53.5401V6.46329H56.2951V8.48999C56.6624 7.78505 57.1281 7.23676 57.6922 6.84513C58.2695 6.43391 58.8992 6.22831 59.5813 6.22831ZM72.0261 7.93191V18.4766C72.0261 19.6515 72.1703 20.4641 72.459 20.9146C72.7476 21.3453 73.2592 21.5607 73.9939 21.5607H75.1942V22.7356H73.8561C72.9247 22.7356 72.2359 22.4126 71.7899 21.7664C71.357 21.1006 71.1405 20.004 71.1405 18.4766V7.93191H69.5269V6.78638H71.1405V2.73298H72.0261V6.78638H75.1942V7.93191H72.0261ZM86.7586 13.6889C86.7586 14.3939 86.7458 14.9226 86.7193 15.275H77.4902C77.5165 16.7045 77.7264 17.9087 78.1199 18.8879C78.5135 19.867 79.0317 20.6013 79.6745 21.0908C80.3171 21.5803 81.0194 21.8251 81.7801 21.8251C82.8298 21.8251 83.7085 21.4433 84.4169 20.6796C85.1253 19.8963 85.5711 18.8389 85.755 17.5073H86.6799C86.4703 19.1327 85.9321 20.4544 85.0663 21.4726C84.2005 22.4713 83.1053 22.9706 81.7801 22.9706C80.7833 22.9706 79.8909 22.6377 79.1038 21.972C78.3167 21.3062 77.7002 20.3565 77.2541 19.1228C76.8081 17.8696 76.585 16.4107 76.585 14.7463C76.585 13.0819 76.8015 11.6328 77.2344 10.3992C77.6805 9.16555 78.297 8.22564 79.0842 7.57944C79.8713 6.91367 80.7697 6.58077 81.7801 6.58077C82.8033 6.58077 83.6888 6.91367 84.4366 7.57944C85.1972 8.22564 85.7747 9.09701 86.1683 10.1936C86.5618 11.2706 86.7586 12.4357 86.7586 13.6889ZM85.8731 14.1883C85.9125 12.7784 85.7422 11.5839 85.3615 10.6048C84.9944 9.62572 84.4888 8.9012 83.8463 8.43124C83.2037 7.9417 82.5081 7.69693 81.7604 7.69693C81.0126 7.69693 80.3171 7.9417 79.6745 8.43124C79.0448 8.9012 78.5267 9.62572 78.1199 10.6048C77.7264 11.5839 77.5165 12.7784 77.4902 14.1883H85.8731ZM88.4903 14.7463C88.4903 13.0819 88.7068 11.6328 89.1397 10.3992C89.5855 9.16555 90.1955 8.22564 90.9697 7.57944C91.7569 6.91367 92.6552 6.58077 93.6656 6.58077C95.0038 6.58077 96.0989 7.08011 96.9519 8.07877C97.8177 9.07744 98.3558 10.4188 98.5655 12.1028H97.6406C97.4703 10.7321 97.0238 9.65509 96.3025 8.87183C95.5941 8.08857 94.7154 7.69693 93.6656 7.69693C92.8785 7.69693 92.1633 7.96128 91.5207 8.48999C90.8782 8.99911 90.3597 9.79217 89.9662 10.8692C89.5855 11.9266 89.3955 13.219 89.3955 14.7463C89.3955 16.2932 89.5855 17.5955 89.9662 18.6529C90.3597 19.7103 90.8782 20.5033 91.5207 21.032C92.1633 21.5607 92.8785 21.8251 93.6656 21.8251C94.7154 21.8251 95.5941 21.4334 96.3025 20.6502C97.0238 19.867 97.4703 18.7899 97.6406 17.4192H98.5655C98.3558 19.0836 97.8177 20.4251 96.9519 21.4433C96.086 22.4615 94.9909 22.9706 93.6656 22.9706C92.6552 22.9706 91.7569 22.6377 90.9697 21.972C90.1955 21.3062 89.5855 20.3565 89.1397 19.1228C88.7068 17.8696 88.4903 16.4107 88.4903 14.7463ZM105.71 6.46329C106.97 6.46329 108 7.05073 108.8 8.22563C109.6 9.38096 110 11.1041 110 13.3952V22.7356H109.134V13.4833C109.134 11.5839 108.813 10.1348 108.17 9.13618C107.527 8.11794 106.655 7.60881 105.553 7.60881C104.399 7.60881 103.474 8.15709 102.778 9.25367C102.096 10.3502 101.755 11.9755 101.755 14.1295V22.7356H100.869V1H101.755V10.1642C102.057 8.96974 102.562 8.05919 103.27 7.43258C103.978 6.78638 104.792 6.46329 105.71 6.46329Z" fill="black"/>
</g>
<defs>
<filter id="filter0_d_28194_9" x="-1" y="0" width="115" height="36" filterUnits="userSpaceOnUse" color-interpolation-filters="sRGB">
<feFlood flood-opacity="0" result="BackgroundImageFix"/>
<feColorMatrix in="SourceAlpha" type="matrix" values="0 0 0 0 0 0 0 0 0 0 0 0 0 0 0 0 0 0 127 0" result="hardAlpha"/>
<feOffset dy="4"/>
<feGaussianBlur stdDeviation="2"/>
<feComposite in2="hardAlpha" operator="out"/>
<feColorMatrix type="matrix" values="0 0 0 0 0.274038 0 0 0 0 0.254276 0 0 0 0 0.254276 0 0 0 0.15 0"/>
<feBlend mode="normal" in2="BackgroundImageFix" result="effect1_dropShadow_28194_9"/>
<feBlend mode="normal" in="SourceGraphic" in2="effect1_dropShadow_28194_9" result="shape"/>
</filter>
</defs>
</svg>
